<?xml version="1.0" encoding="utf-8"?>
<!-- Generator: Adobe Illustrator 16.0.0, SVG Export Plug-In . SVG Version: 6.00 Build 0)  -->
<!DOCTYPE svg PUBLIC "-//W3C//DTD SVG 1.1//EN" "http://www.w3.org/Graphics/SVG/1.1/DTD/svg11.dtd">
<svg version="1.1" id="Layer_1" xmlns="http://www.w3.org/2000/svg" xmlns:xlink="http://www.w3.org/1999/xlink" x="0px" y="0px"
	 width="250px" height="500px" viewBox="0 -125 250 500" enable-background="new 0 -125 250 500" xml:space="preserve">
<g>
	<path d="M125.434,272.127c27.272,0,49.466-22.194,49.466-49.465c0-27.273-22.193-49.467-49.466-49.467
		c-27.271,0-49.465,22.193-49.465,49.467C75.967,249.933,98.162,272.127,125.434,272.127z M102.164,217.664l16.204,16.204
		l30.336-30.338l9.992,9.995l-40.329,40.328l-26.197-26.195L102.164,217.664z"/>
	<path d="M125.434,372l73.446-94.159l0.083-0.104c11.994-15.981,18.336-35.028,18.336-55.075c0-50.654-41.213-91.865-91.865-91.865
		c-50.653,0-91.865,41.211-91.865,91.865c0,20.047,6.341,39.094,18.419,55.18L125.434,372z M125.434,159.062
		c35.069,0,63.599,28.53,63.599,63.599c0,35.069-28.529,63.599-63.599,63.599s-63.599-28.529-63.599-63.599
		C61.835,187.592,90.364,159.062,125.434,159.062z"/>
</g>
<g>
	<path fill="#FFFFFF" d="M125.496,23.014c27.273,0,49.466-22.194,49.466-49.465c0-27.273-22.192-49.467-49.466-49.467
		c-27.271,0-49.465,22.194-49.465,49.467C76.03,0.82,98.225,23.014,125.496,23.014z M102.226-31.449l16.204,16.204l30.336-30.338
		l9.992,9.995L118.429,4.74L92.232-21.455L102.226-31.449z"/>
	<path fill="#FFFFFF" d="M125.496,122.887l73.446-94.159l0.083-0.103c11.994-15.982,18.336-35.028,18.336-55.076
		c0-50.654-41.213-91.865-91.865-91.865c-50.653,0-91.865,41.211-91.865,91.865c0,20.047,6.341,39.094,18.419,55.18L125.496,122.887
		z M125.496-90.051c35.07,0,63.599,28.53,63.599,63.598c0,35.07-28.528,63.599-63.599,63.599c-35.069,0-63.599-28.529-63.599-63.599
		C61.897-61.521,90.427-90.051,125.496-90.051z"/>
</g>
</svg>
